<?xml version="1.0" standalone="no"?>
<!DOCTYPE svg PUBLIC "-//W3C//DTD SVG 20010904//EN"
 "http://www.w3.org/TR/2001/REC-SVG-20010904/DTD/svg10.dtd">
<svg version="1.0" xmlns="http://www.w3.org/2000/svg"
 width="2048.000000pt" height="998.000000pt" viewBox="0 0 2048.000000 998.000000"
 preserveAspectRatio="xMidYMid meet">

<g transform="translate(0.000000,998.000000) scale(0.100000,-0.100000)"
fill="#000000" stroke="none">
<path d="M0 4990 l0 -4990 10240 0 10240 0 0 4990 0 4990 -10240 0 -10240 0 0
-4990z m10370 3286 c341 -52 534 -102 760 -199 497 -214 893 -579 1137 -1047
165 -317 292 -774 364 -1315 21 -153 23 -210 24 -580 0 -418 -5 -498 -46 -785
-51 -354 -149 -730 -263 -1003 -145 -350 -387 -673 -681 -909 -170 -136 -451
-294 -654 -367 -329 -119 -660 -169 -1051 -158 -415 12 -852 104 -1164 246
-62 28 -67 33 -55 48 7 10 9 15 5 11 -5 -5 -15 1 -23 12 -8 11 -19 20 -24 20
-6 0 -47 25 -92 57 -400 276 -702 653 -871 1091 -71 184 -145 445 -196 697
-26 127 -38 201 -71 450 -17 135 -27 518 -18 764 22 620 171 1269 391 1705
113 223 313 482 515 667 143 130 270 220 453 319 63 35 126 70 140 79 14 8 27
15 30 14 3 -1 5 11 5 27 1 16 -3 26 -7 24 -5 -3 -5 -10 -2 -16 4 -7 2 -8 -5
-4 -29 18 18 43 159 84 138 39 349 80 480 91 58 5 215 8 350 6 197 -3 277 -9
410 -29z m-4209 -121 c3 -2 0 -64 -7 -137 -36 -374 -37 -425 -41 -1945 l-4
-1523 196 0 c193 0 488 20 658 44 l87 13 0 -670 0 -669 -47 6 c-150 20 -281
28 -572 33 l-324 6 6 -424 c5 -403 16 -581 46 -770 6 -35 11 -67 11 -71 0 -5
-342 -8 -760 -8 -418 0 -760 4 -760 8 0 4 7 59 15 122 27 212 36 383 42 763
l6 378 -1399 -4 c-967 -3 -1436 -8 -1518 -16 -66 -6 -123 -8 -128 -3 -4 4 -8
300 -8 658 0 557 -3 651 -15 651 -8 0 -12 -4 -9 -9 3 -5 0 -17 -8 -26 -12 -16
-11 -16 7 -2 17 12 16 10 -3 -11 -12 -14 -20 -28 -17 -31 3 -3 -3 -11 -12 -19
-16 -12 -17 -12 -6 2 10 13 10 16 -1 16 -9 0 -13 -8 -10 -24 3 -17 1 -22 -7
-17 -8 5 -9 3 -3 -7 17 -27 14 -40 -8 -28 -17 9 -18 8 -10 -8 8 -13 5 -24 -8
-40 -10 -12 -21 -19 -26 -15 -5 4 -3 0 4 -9 9 -13 9 -16 -3 -16 -12 0 -15 20
-15 109 l0 109 96 107 c54 59 105 114 114 122 9 9 23 26 29 39 8 15 19 21 31
18 13 -3 17 0 13 9 -3 8 0 14 6 14 6 0 11 6 11 13 0 21 37 51 45 37 3 -6 3 -9
-2 -8 -4 2 -9 -2 -11 -7 -2 -6 -11 -18 -19 -27 -9 -10 -13 -18 -8 -18 4 0 2
-7 -5 -15 -6 -8 -9 -19 -6 -24 4 -6 -2 -8 -15 -6 -18 4 -19 2 -7 -12 12 -15
11 -15 -12 -3 -14 7 -22 9 -17 5 4 -5 0 -19 -8 -32 -9 -13 -13 -23 -9 -23 4 0
1 -7 -6 -15 -6 -8 -8 -20 -4 -26 5 -9 2 -10 -9 -6 -12 4 -14 0 -11 -19 3 -14
1 -23 -5 -20 -5 3 -14 -1 -21 -9 -7 -8 -9 -15 -5 -15 5 0 0 -10 -11 -22 -10
-12 -13 -18 -5 -13 22 13 76 77 74 87 -2 4 3 8 10 9 6 0 35 26 62 58 119 135
193 218 236 265 26 28 100 114 165 192 66 77 160 187 209 244 50 57 157 183
239 279 82 97 152 178 155 181 4 3 83 95 176 205 93 110 181 214 196 230 15
17 202 235 417 485 214 250 434 507 489 570 143 166 296 361 419 534 59 83
119 163 133 179 l25 27 746 0 c411 0 749 -2 751 -5z m11379 -12 c0 -10 -7 -94
-14 -188 -38 -451 -41 -598 -38 -2202 l2 -1203 113 0 c138 0 353 15 510 36 83
11 121 13 130 5 9 -7 34 -7 77 -1 36 5 75 10 88 10 l22 0 0 -666 0 -665 -72 6
c-40 4 -79 9 -87 11 -7 2 -19 0 -25 -5 -7 -5 -57 -4 -131 5 -66 8 -233 17
-371 21 l-251 6 -6 -244 c-6 -287 6 -585 33 -829 11 -96 20 -181 20 -187 0
-10 -175 -13 -839 -13 -462 0 -842 3 -844 8 -3 4 1 52 8 107 32 246 39 383 40
765 l0 395 -945 3 c-565 2 -1120 -2 -1380 -9 -239 -7 -457 -12 -485 -13 l-50
-1 -3 652 -2 652 32 38 c18 21 71 81 118 133 96 105 309 350 471 541 163 191
942 1103 1029 1204 43 50 202 236 355 415 152 179 328 384 390 455 219 252
398 482 538 689 l58 86 754 0 c712 0 755 -1 755 -17z m-15776 -3365 c-5 -7 -9
-15 -9 -18 -1 -12 -24 -44 -25 -34 0 6 3 14 8 18 4 4 7 11 8 14 2 16 17 42 21
38 3 -3 1 -11 -3 -18z"/>
<path d="M10690 7791 c-96 -9 -214 -49 -315 -106 -43 -25 -108 -56 -144 -71
-36 -14 -79 -30 -94 -36 -15 -6 -50 -35 -76 -65 -60 -67 -87 -144 -102 -286
-21 -204 -15 -186 -57 -192 -239 -40 -459 -188 -607 -410 -91 -137 -175 -319
-155 -339 21 -21 11 -73 -17 -95 -16 -11 -23 -21 -16 -21 7 0 34 23 60 51 181
195 400 253 640 170 48 -17 89 -29 90 -27 2 2 51 227 53 242 0 0 13 -1 29 -4
36 -5 87 21 96 49 5 14 -2 38 -20 70 -19 36 -28 70 -32 123 -7 88 7 138 44
155 28 13 39 6 90 -49 21 -23 22 -24 23 -5 0 38 51 230 71 272 12 25 36 52 57
65 31 19 48 22 123 20 48 -1 133 -9 188 -17 190 -28 297 -17 384 42 20 14 39
24 41 22 1 -2 18 -32 36 -66 27 -49 37 -60 47 -51 21 17 99 166 128 242 43
114 33 246 -22 298 -24 23 -29 23 -246 24 -122 1 -256 -2 -297 -5z"/>
<path d="M10071 6940 c0 -8 7 -31 14 -50 l13 -35 1 31 c1 16 -6 39 -14 50 -11
14 -14 15 -14 4z"/>
<path d="M10114 6814 c3 -9 9 -27 13 -42 6 -24 7 -24 19 -7 18 24 17 30 -2 49
-20 21 -38 21 -30 0z"/>
<path d="M10951 6390 c0 -8 6 -26 14 -40 8 -14 14 -19 14 -10 0 8 -6 26 -14
40 -8 14 -14 19 -14 10z"/>
<path d="M10790 6319 c-38 -15 -227 -41 -300 -40 l-65 0 -108 -134 c-60 -76
-103 -137 -97 -140 16 -10 71 5 102 27 15 10 44 53 65 96 56 116 54 115 122
90 31 -12 72 -31 91 -43 35 -22 291 -127 297 -122 6 7 -71 278 -79 276 -2 0
-14 -5 -28 -10z"/>
<path d="M11018 6255 c-3 -3 1 -24 8 -48 7 -23 23 -82 35 -131 l23 -88 45 -20
c25 -11 64 -26 86 -33 22 -8 80 -27 129 -44 106 -37 120 -38 82 -8 -16 12 -38
32 -49 44 -11 12 -25 19 -31 16 -6 -3 -8 -3 -4 1 9 11 -20 44 -65 72 -23 15
-35 29 -31 37 4 7 4 9 0 5 -11 -9 -57 33 -49 45 3 6 1 7 -4 4 -6 -4 -16 0 -23
8 -7 8 -16 12 -21 9 -5 -3 -8 0 -7 8 2 7 -3 12 -10 10 -8 -1 -11 1 -8 6 7 12
-38 54 -49 45 -4 -5 -5 -3 -2 3 7 12 -46 68 -55 59z"/>
<path d="M12441 5884 c0 -11 3 -14 6 -6 3 7 2 16 -1 19 -3 4 -6 -2 -5 -13z"/>
<path d="M12455 5825 c3 -22 8 -91 11 -152 7 -108 8 -113 29 -113 l22 0 -24
123 c-13 67 -28 136 -33 152 -9 28 -10 27 -5 -10z"/>
<path d="M10930 5137 c0 -27 -52 -276 -90 -434 -119 -489 -266 -936 -422
-1277 -27 -59 -47 -111 -44 -113 3 -3 29 12 58 34 264 200 431 558 507 1091
26 177 43 440 39 587 -3 105 -4 110 -25 113 -13 2 -23 2 -23 -1z"/>
<path d="M4695 6344 c-27 -38 -74 -100 -105 -139 -31 -38 -105 -133 -165 -210
-60 -77 -300 -374 -535 -660 -234 -286 -476 -582 -538 -657 -62 -75 -112 -139
-112 -142 0 -8 1210 -7 1357 0 l121 7 5 761 c3 432 10 831 16 924 7 90 11 168
9 174 -2 6 -26 -20 -53 -58z"/>
<path d="M1533 4403 c0 -9 4 -10 14 -2 7 6 13 12 13 14 0 1 -6 2 -13 2 -8 0
-14 -6 -14 -14z"/>
<path d="M16032 6288 c-150 -201 -311 -400 -872 -1083 -292 -356 -534 -654
-537 -661 -4 -12 99 -14 646 -14 l651 0 1 548 c1 301 2 554 2 564 0 10 5 14
13 11 8 -3 14 0 14 6 0 6 -5 11 -11 11 -6 0 -1 8 12 19 13 10 29 16 36 14 7
-3 13 -1 13 5 0 6 -5 12 -10 14 -6 2 0 9 12 17 21 13 22 13 10 -2 -10 -12 -10
-17 -1 -23 7 -4 9 -3 5 4 -3 6 -2 13 4 17 6 4 7 12 1 24 -7 13 -6 18 5 19 7 1
21 3 29 4 12 1 12 4 2 17 -10 12 -9 13 2 6 11 -6 13 -4 8 8 -3 9 -3 16 1 16
26 -4 29 9 35 154 14 314 19 402 22 415 3 6 3 12 2 12 -1 0 -44 -55 -95 -122z"/>
<path d="M15961 5686 c-9 -11 -9 -16 1 -22 7 -4 10 -4 6 1 -4 4 -3 14 3 22 6
7 9 13 6 13 -2 0 -10 -6 -16 -14z"/>
</g>
</svg>
